<?xml version="1.0" encoding="UTF-8" standalone="no"?>
<!-- Created with Inkscape (http://www.inkscape.org/) -->

<svg
   version="1.1"
   id="svg2"
   width="912"
   height="456"
   viewBox="0 0 912 456"
   sodipodi:docname="ib0_vs_XR_curve.svg"
   inkscape:version="1.2 (dc2aedaf03, 2022-05-15)"
   xmlns:inkscape="http://www.inkscape.org/namespaces/inkscape"
   xmlns:sodipodi="http://sodipodi.sourceforge.net/DTD/sodipodi-0.dtd"
   xmlns="http://www.w3.org/2000/svg"
   xmlns:svg="http://www.w3.org/2000/svg">
  <defs
     id="defs6">
    <clipPath
       clipPathUnits="userSpaceOnUse"
       id="clipPath14">
      <path
         d="M 0,0 H 792 V 612 H 0 Z"
         id="path12" />
    </clipPath>
    <clipPath
       clipPathUnits="userSpaceOnUse"
       id="clipPath22">
      <path
         d="m 50.4,135.36 h 691.2 v 341.4 H 50.4 Z"
         clip-rule="evenodd"
         id="path20" />
    </clipPath>
    <clipPath
       clipPathUnits="userSpaceOnUse"
       id="clipPath36">
      <path
         d="m 92.078,210.59 h 630.21 V 458.93 H 92.078 Z"
         clip-rule="evenodd"
         id="path34" />
    </clipPath>
    <clipPath
       clipPathUnits="userSpaceOnUse"
       id="clipPath46">
      <path
         d="m 92.078,210.59 h 630.21 V 458.93 H 92.078 Z"
         clip-rule="evenodd"
         id="path44" />
    </clipPath>
    <clipPath
       clipPathUnits="userSpaceOnUse"
       id="clipPath56">
      <path
         d="m 92.078,210.59 h 630.21 V 458.93 H 92.078 Z"
         clip-rule="evenodd"
         id="path54" />
    </clipPath>
    <clipPath
       clipPathUnits="userSpaceOnUse"
       id="clipPath66">
      <path
         d="M 50.52,135.36 H 741.6 v 341.4 H 50.52 Z"
         clip-rule="evenodd"
         id="path64" />
    </clipPath>
    <clipPath
       clipPathUnits="userSpaceOnUse"
       id="clipPath78">
      <path
         d="M 50.52,135.36 H 741.6 v 341.4 H 50.52 Z"
         clip-rule="evenodd"
         id="path76" />
    </clipPath>
    <clipPath
       clipPathUnits="userSpaceOnUse"
       id="clipPath90">
      <path
         d="M 50.52,135.36 H 741.6 v 341.4 H 50.52 Z"
         clip-rule="evenodd"
         id="path88" />
    </clipPath>
    <clipPath
       clipPathUnits="userSpaceOnUse"
       id="clipPath102">
      <path
         d="M 50.52,135.36 H 741.6 v 341.4 H 50.52 Z"
         clip-rule="evenodd"
         id="path100" />
    </clipPath>
    <clipPath
       clipPathUnits="userSpaceOnUse"
       id="clipPath114">
      <path
         d="M 50.52,135.36 H 741.6 v 341.4 H 50.52 Z"
         clip-rule="evenodd"
         id="path112" />
    </clipPath>
    <clipPath
       clipPathUnits="userSpaceOnUse"
       id="clipPath126">
      <path
         d="M 50.52,135.36 H 741.6 v 341.4 H 50.52 Z"
         clip-rule="evenodd"
         id="path124" />
    </clipPath>
    <clipPath
       clipPathUnits="userSpaceOnUse"
       id="clipPath138">
      <path
         d="M 50.52,135.36 H 741.6 v 341.4 H 50.52 Z"
         clip-rule="evenodd"
         id="path136" />
    </clipPath>
    <clipPath
       clipPathUnits="userSpaceOnUse"
       id="clipPath150">
      <path
         d="M 50.52,135.36 H 741.6 v 341.4 H 50.52 Z"
         clip-rule="evenodd"
         id="path148" />
    </clipPath>
    <clipPath
       clipPathUnits="userSpaceOnUse"
       id="clipPath162">
      <path
         d="M 50.52,135.36 H 741.6 v 341.4 H 50.52 Z"
         clip-rule="evenodd"
         id="path160" />
    </clipPath>
    <clipPath
       clipPathUnits="userSpaceOnUse"
       id="clipPath174">
      <path
         d="M 50.52,135.36 H 741.6 v 341.4 H 50.52 Z"
         clip-rule="evenodd"
         id="path172" />
    </clipPath>
    <clipPath
       clipPathUnits="userSpaceOnUse"
       id="clipPath186">
      <path
         d="M 50.52,135.36 H 741.6 v 341.4 H 50.52 Z"
         clip-rule="evenodd"
         id="path184" />
    </clipPath>
    <clipPath
       clipPathUnits="userSpaceOnUse"
       id="clipPath198">
      <path
         d="M 50.52,135.36 H 741.6 v 341.4 H 50.52 Z"
         clip-rule="evenodd"
         id="path196" />
    </clipPath>
    <clipPath
       clipPathUnits="userSpaceOnUse"
       id="clipPath210">
      <path
         d="M 50.52,135.36 H 741.6 v 341.4 H 50.52 Z"
         clip-rule="evenodd"
         id="path208" />
    </clipPath>
    <clipPath
       clipPathUnits="userSpaceOnUse"
       id="clipPath222">
      <path
         d="M 50.52,135.36 H 741.6 v 341.4 H 50.52 Z"
         clip-rule="evenodd"
         id="path220" />
    </clipPath>
    <clipPath
       clipPathUnits="userSpaceOnUse"
       id="clipPath234">
      <path
         d="M 50.52,135.36 H 741.6 v 341.4 H 50.52 Z"
         clip-rule="evenodd"
         id="path232" />
    </clipPath>
    <clipPath
       clipPathUnits="userSpaceOnUse"
       id="clipPath248">
      <path
         d="M 50.52,135.36 H 741.6 v 341.4 H 50.52 Z"
         clip-rule="evenodd"
         id="path246" />
    </clipPath>
    <clipPath
       clipPathUnits="userSpaceOnUse"
       id="clipPath260">
      <path
         d="M 50.52,135.36 H 741.6 v 341.4 H 50.52 Z"
         clip-rule="evenodd"
         id="path258" />
    </clipPath>
    <clipPath
       clipPathUnits="userSpaceOnUse"
       id="clipPath274">
      <path
         d="M 50.52,135.36 H 741.6 v 341.4 H 50.52 Z"
         clip-rule="evenodd"
         id="path272" />
    </clipPath>
    <clipPath
       clipPathUnits="userSpaceOnUse"
       id="clipPath286">
      <path
         d="m 72.12,394.2 h 241.2 v 30.84 H 72.12 Z"
         clip-rule="evenodd"
         id="path284" />
    </clipPath>
    <clipPath
       clipPathUnits="userSpaceOnUse"
       id="clipPath300">
      <path
         d="m 72.12,394.2 h 241.2 v 30.84 H 72.12 Z"
         clip-rule="evenodd"
         id="path298" />
    </clipPath>
    <clipPath
       clipPathUnits="userSpaceOnUse"
       id="clipPath312">
      <path
         d="M 50.52,135.36 H 741.6 v 341.4 H 50.52 Z"
         clip-rule="evenodd"
         id="path310" />
    </clipPath>
    <clipPath
       clipPathUnits="userSpaceOnUse"
       id="clipPath326">
      <path
         d="M 50.52,135.36 H 741.6 v 341.4 H 50.52 Z"
         clip-rule="evenodd"
         id="path324" />
    </clipPath>
    <clipPath
       clipPathUnits="userSpaceOnUse"
       id="clipPath338">
      <path
         d="M 50.52,135.36 H 741.6 v 341.4 H 50.52 Z"
         clip-rule="evenodd"
         id="path336" />
    </clipPath>
    <clipPath
       clipPathUnits="userSpaceOnUse"
       id="clipPath352">
      <path
         d="M 50.52,135.36 H 741.6 v 341.4 H 50.52 Z"
         clip-rule="evenodd"
         id="path350" />
    </clipPath>
  </defs>
  <sodipodi:namedview
     id="namedview4"
     pagecolor="#ffffff"
     bordercolor="#000000"
     borderopacity="0.25"
     inkscape:showpageshadow="2"
     inkscape:pageopacity="0.0"
     inkscape:pagecheckerboard="0"
     inkscape:deskcolor="#d1d1d1"
     showgrid="false"
     inkscape:zoom="0.51754386"
     inkscape:cx="456"
     inkscape:cy="228"
     inkscape:window-width="2560"
     inkscape:window-height="1009"
     inkscape:window-x="1912"
     inkscape:window-y="-8"
     inkscape:window-maximized="1"
     inkscape:current-layer="g10">
    <inkscape:page
       x="0"
       y="0"
       id="page8"
       width="912"
       height="456" />
  </sodipodi:namedview>
  <g
     id="g10"
     inkscape:groupmode="layer"
     inkscape:label="Page 1"
     transform="matrix(1.3333333,0,0,-1.3333333,-72,648)"
     clip-path="url(#clipPath14)">
    <g
       id="g16">
      <g
         id="g18"
         clip-path="url(#clipPath22)">
        <path
           d="m 50.506,135.26 h 691.18 V 476.75 H 50.506 Z"
           style="fill:#ffffff;fill-opacity:1;fill-rule:evenodd;stroke:none"
           id="path24" />
      </g>
    </g>
    <path
       d="M 406.73,211.6 V 458.8"
       style="fill:none;stroke:#bfbfbf;stroke-width:1.0923;stroke-linecap:butt;stroke-linejoin:round;stroke-miterlimit:10;stroke-dasharray:none;stroke-opacity:1"
       id="path26" />
    <path
       d="M 92.231,211.6 H 721.24"
       style="fill:none;stroke:#bfbfbf;stroke-width:1.0923;stroke-linecap:butt;stroke-linejoin:round;stroke-miterlimit:10;stroke-dasharray:none;stroke-opacity:1"
       id="path28" />
    <g
       id="g30">
      <g
         id="g32"
         clip-path="url(#clipPath36)">
        <path
           d="m 58.482,372.61 104.898,-18.89 61.35,-11.19 43.34,-8.04 33.9,-5.94 27.44,-4.89 23.42,-4.2 20.1,-3.32 17.82,-2.97 15.91,-2.62 14.5,-2.45 13.11,-2.09 12.06,-1.92 11.36,-1.75 10.31,-1.58 9.79,-1.39 9.26,-1.4 8.56,-1.22 8.22,-1.23 7.69,-1.05 7.51,-1.05 6.99,-1.04 6.64,-0.88 6.47,-0.87 6.12,-0.88 5.94,-0.69 5.77,-0.88 5.41,-0.7 5.42,-0.7 5.07,-0.7 5.07,-0.52 4.72,-0.7 4.72,-0.52 4.54,-0.53 4.37,-0.52 4.19,-0.53 4.2,-0.52 4.02,-0.52 3.84,-0.53 3.85,-0.35 3.84,-0.52 3.5,-0.35 3.67,-0.35 3.49,-0.53 3.32,-0.35 3.32,-0.35 3.32,-0.34 3.15,-0.35 3.15,-0.35 2.97,-0.35 2.97,-0.35 2.97,-0.35 2.97,-0.35 2.8,-0.18 2.79,-0.35 2.62,-0.35 2.8,-0.17 2.62,-0.35 2.45,-0.18 2.62,-0.34 2.45,-0.18 2.44,-0.35 2.45,-0.17 2.45,-0.35 2.27,-0.18 2.45,-0.17 2.27,-0.35 2.09,-0.18 2.28,-0.17 2.09,-0.18 2.28,-0.35 2.09,-0.17 2.1,-0.18 2.1,-0.17 1.92,-0.18 2.1,-0.17 1.92,-0.17 1.92,-0.18 1.92,-0.17 1.93,-0.35 1.92,-0.18 1.75,-0.17 h 1.92 l 1.75,-0.18 1.74,-0.17 1.93,-0.18 1.74,-0.17 1.58,-0.18 1.74,-0.17 1.75,-0.18 1.58,-0.17 1.74,-0.18 h 1.58 l 1.74,-0.17 1.58,-0.18 1.57,-0.17 1.57,-0.18 H 752 l 1.39,-0.17 1.6,-0.16"
           style="fill:none;stroke:#000000;stroke-width:2.1846;stroke-linecap:round;stroke-linejoin:round;stroke-miterlimit:10;stroke-dasharray:6.5537, 8.7383;stroke-dashoffset:0;stroke-opacity:1"
           id="path38" />
      </g>
    </g>
    <g
       id="g40">
      <g
         id="g42"
         clip-path="url(#clipPath46)">
        <path
           d="m 58.482,421.72 104.898,-26.41 61.35,-19.92 43.34,-15.55 33.9,-12.24 27.44,-10.13 23.42,-8.39 20.1,-7.17 17.82,-6.12 15.91,-5.24 14.5,-4.72 13.11,-4.02 12.06,-3.67 11.36,-3.32 10.31,-2.79 9.79,-2.8 9.26,-2.27 8.56,-2.27 8.22,-2.1 7.69,-1.75 7.51,-1.75 6.99,-1.57 6.64,-1.4 6.47,-1.4 6.12,-1.39 5.94,-1.05 5.77,-1.23 5.41,-1.04 5.42,-1.05 5.07,-0.88 5.07,-0.87 4.72,-0.87 4.72,-0.7 4.54,-0.88 4.37,-0.7 4.19,-0.52 4.2,-0.7 4.02,-0.7 3.84,-0.52 3.85,-0.53 3.84,-0.52 3.5,-0.53 3.67,-0.52 3.49,-0.52 3.32,-0.35 3.32,-0.53 3.32,-0.35 3.15,-0.52 3.15,-0.35 2.97,-0.35 2.97,-0.35 2.97,-0.35 2.97,-0.35 2.8,-0.35 2.79,-0.35 2.62,-0.17 2.8,-0.35 2.62,-0.35 2.45,-0.18 2.62,-0.35 2.45,-0.17 2.44,-0.35 2.45,-0.18 2.45,-0.17 2.27,-0.35 2.45,-0.18 2.27,-0.17 2.09,-0.35 2.28,-0.17 2.09,-0.18 2.28,-0.17 2.09,-0.18 2.1,-0.17 2.1,-0.18 1.92,-0.17 2.1,-0.18 1.92,-0.17 1.92,-0.18 1.92,-0.17 1.93,-0.18 1.92,-0.17 1.75,-0.18 h 1.92 l 1.75,-0.17 1.74,-0.18 1.93,-0.17 1.74,-0.18 h 1.58 l 1.74,-0.17 1.75,-0.17 h 1.58 l 1.74,-0.18 1.58,-0.17 h 1.74 l 1.58,-0.18 1.57,-0.17 h 1.57 l 1.58,-0.18 1.39,-0.17 1.6,-0.02"
           style="fill:none;stroke:#000000;stroke-width:2.1846;stroke-linecap:round;stroke-linejoin:round;stroke-miterlimit:10;stroke-dasharray:none;stroke-opacity:1"
           id="path48" />
      </g>
    </g>
    <g
       id="g50">
      <g
         id="g52"
         clip-path="url(#clipPath56)">
        <path
           d="m 58.482,454.44 104.898,-12.11 61.35,-17.48 43.34,-19.92 33.9,-20.28 27.44,-19.05 23.42,-16.95 20.1,-14.68 17.82,-12.76 15.91,-10.66 14.5,-9.26 13.11,-7.69 12.06,-6.47 11.36,-5.59 10.31,-4.72 9.79,-4.19 9.26,-3.5 8.56,-3.14 8.22,-2.63 7.69,-2.27 7.51,-2.09 6.99,-1.93 6.64,-1.57 6.47,-1.4 6.12,-1.22 5.94,-1.22 5.77,-1.05 5.41,-0.88 5.42,-0.87 5.07,-0.87 5.07,-0.7 4.72,-0.53 4.72,-0.7 4.54,-0.52 4.37,-0.53 4.19,-0.35 4.2,-0.52 4.02,-0.35 3.84,-0.35 3.85,-0.35 3.84,-0.35 3.5,-0.35 3.67,-0.17 3.49,-0.35 3.32,-0.18 3.32,-0.17 3.32,-0.35 3.15,-0.18 3.15,-0.17 2.97,-0.17 2.97,-0.18 2.97,-0.17 h 2.97 l 2.8,-0.18 2.79,-0.17 2.62,-0.18 h 2.8 l 2.62,-0.17 2.45,-0.18 h 2.62 l 2.45,-0.17 h 2.44 l 2.45,-0.18 h 2.45 l 2.27,-0.17 h 2.45 l 2.27,-0.18 h 2.09 l 2.28,-0.17 h 2.09 2.28 l 2.09,-0.18 h 2.1 2.1 l 1.92,-0.17 h 2.1 1.92 1.92 l 1.92,-0.18 h 1.93 1.92 1.75 l 1.92,-0.17 h 1.75 1.74 1.93 1.74 l 1.58,-0.18 h 1.74 1.75 1.58 1.74 1.58 l 1.74,-0.17 h 1.58 1.57 1.57 1.58 1.39 l 1.6,-0.07"
           style="fill:none;stroke:#000000;stroke-width:2.1846;stroke-linecap:round;stroke-linejoin:round;stroke-miterlimit:10;stroke-dasharray:4.3692, 4.3692;stroke-dashoffset:0;stroke-opacity:1"
           id="path58" />
      </g>
    </g>
    <g
       id="g60">
      <g
         id="g62"
         clip-path="url(#clipPath66)">
        <text
           xml:space="preserve"
           transform="matrix(1,0,0,-1,369.22,206.54)"
           style="font-variant:normal;font-weight:normal;font-size:17.472px;font-family:Calibri;-inkscape-font-specification:Calibri;writing-mode:lr-tb;fill:#595959;fill-opacity:1;fill-rule:nonzero;stroke:none"
           id="text70"><tspan
             x="0 8.9280043"
             y="0"
             sodipodi:role="line"
             id="tspan68">0%</tspan></text>
      </g>
    </g>
    <g
       id="g72">
      <g
         id="g74"
         clip-path="url(#clipPath78)">
        <text
           xml:space="preserve"
           transform="matrix(1,0,0,-1,369.22,256.01)"
           style="font-variant:normal;font-weight:normal;font-size:17.496px;font-family:Calibri;-inkscape-font-specification:Calibri;writing-mode:lr-tb;fill:#595959;fill-opacity:1;fill-rule:nonzero;stroke:none"
           id="text82"><tspan
             x="0 8.9279718"
             y="0"
             sodipodi:role="line"
             id="tspan80">2%</tspan></text>
      </g>
    </g>
    <g
       id="g84">
      <g
         id="g86"
         clip-path="url(#clipPath90)">
        <text
           xml:space="preserve"
           transform="matrix(1,0,0,-1,369.22,305.45)"
           style="font-variant:normal;font-weight:normal;font-size:17.472px;font-family:Calibri;-inkscape-font-specification:Calibri;writing-mode:lr-tb;fill:#595959;fill-opacity:1;fill-rule:nonzero;stroke:none"
           id="text94"><tspan
             x="0 8.9280043"
             y="0"
             sodipodi:role="line"
             id="tspan92">4%</tspan></text>
      </g>
    </g>
    <g
       id="g96">
      <g
         id="g98"
         clip-path="url(#clipPath102)">
        <text
           xml:space="preserve"
           transform="matrix(1,0,0,-1,369.22,354.91)"
           style="font-variant:normal;font-weight:normal;font-size:17.496px;font-family:Calibri;-inkscape-font-specification:Calibri;writing-mode:lr-tb;fill:#595959;fill-opacity:1;fill-rule:nonzero;stroke:none"
           id="text106"><tspan
             x="0 8.9279718"
             y="0"
             sodipodi:role="line"
             id="tspan104">6%</tspan></text>
      </g>
    </g>
    <g
       id="g108">
      <g
         id="g110"
         clip-path="url(#clipPath114)">
        <text
           xml:space="preserve"
           transform="matrix(1,0,0,-1,369.22,404.35)"
           style="font-variant:normal;font-weight:normal;font-size:17.472px;font-family:Calibri;-inkscape-font-specification:Calibri;writing-mode:lr-tb;fill:#595959;fill-opacity:1;fill-rule:nonzero;stroke:none"
           id="text118"><tspan
             x="0 8.9280043"
             y="0"
             sodipodi:role="line"
             id="tspan116">8%</tspan></text>
      </g>
    </g>
    <g
       id="g120">
      <g
         id="g122"
         clip-path="url(#clipPath126)">
        <text
           xml:space="preserve"
           transform="matrix(1,0,0,-1,360.36,453.82)"
           style="font-variant:normal;font-weight:normal;font-size:17.496px;font-family:Calibri;-inkscape-font-specification:Calibri;writing-mode:lr-tb;fill:#595959;fill-opacity:1;fill-rule:nonzero;stroke:none"
           id="text130"><tspan
             x="0 8.9054642 17.635967"
             y="0"
             sodipodi:role="line"
             id="tspan128">10%</tspan></text>
      </g>
    </g>
    <g
       id="g132">
      <g
         id="g134"
         clip-path="url(#clipPath138)">
        <text
           xml:space="preserve"
           transform="matrix(1,0,0,-1,79.992,183.82)"
           style="font-variant:normal;font-weight:normal;font-size:17.472px;font-family:Calibri;-inkscape-font-specification:Calibri;writing-mode:lr-tb;fill:#595959;fill-opacity:1;fill-rule:nonzero;stroke:none"
           id="text142"><tspan
             x="0 8.9107199 15.55008"
             y="0"
             sodipodi:role="line"
             id="tspan140">1/8</tspan></text>
      </g>
    </g>
    <g
       id="g144">
      <g
         id="g146"
         clip-path="url(#clipPath150)">
        <text
           xml:space="preserve"
           transform="matrix(1,0,0,-1,184.85,183.82)"
           style="font-variant:normal;font-weight:normal;font-size:17.472px;font-family:Calibri;-inkscape-font-specification:Calibri;writing-mode:lr-tb;fill:#595959;fill-opacity:1;fill-rule:nonzero;stroke:none"
           id="text154"><tspan
             x="0 8.9107199 15.55008"
             y="0"
             sodipodi:role="line"
             id="tspan152">1/4</tspan></text>
      </g>
    </g>
    <g
       id="g156">
      <g
         id="g158"
         clip-path="url(#clipPath162)">
        <text
           xml:space="preserve"
           transform="matrix(1,0,0,-1,289.7,183.82)"
           style="font-variant:normal;font-weight:normal;font-size:17.472px;font-family:Calibri;-inkscape-font-specification:Calibri;writing-mode:lr-tb;fill:#595959;fill-opacity:1;fill-rule:nonzero;stroke:none"
           id="text166"><tspan
             x="0 8.9107199 15.55008"
             y="0"
             sodipodi:role="line"
             id="tspan164">1/2</tspan></text>
      </g>
    </g>
    <g
       id="g168">
      <g
         id="g170"
         clip-path="url(#clipPath174)">
        <text
           xml:space="preserve"
           transform="matrix(1,0,0,-1,402.36,183.82)"
           style="font-variant:normal;font-weight:normal;font-size:17.472px;font-family:Calibri;-inkscape-font-specification:Calibri;writing-mode:lr-tb;fill:#595959;fill-opacity:1;fill-rule:nonzero;stroke:none"
           id="text178"><tspan
             x="0"
             y="0"
             id="tspan176">1</tspan></text>
      </g>
    </g>
    <g
       id="g180">
      <g
         id="g182"
         clip-path="url(#clipPath186)">
        <text
           xml:space="preserve"
           transform="matrix(1,0,0,-1,507.22,183.82)"
           style="font-variant:normal;font-weight:normal;font-size:17.472px;font-family:Calibri;-inkscape-font-specification:Calibri;writing-mode:lr-tb;fill:#595959;fill-opacity:1;fill-rule:nonzero;stroke:none"
           id="text190"><tspan
             x="0"
             y="0"
             id="tspan188">2</tspan></text>
      </g>
    </g>
    <g
       id="g192">
      <g
         id="g194"
         clip-path="url(#clipPath198)">
        <text
           xml:space="preserve"
           transform="matrix(1,0,0,-1,612.07,183.82)"
           style="font-variant:normal;font-weight:normal;font-size:17.472px;font-family:Calibri;-inkscape-font-specification:Calibri;writing-mode:lr-tb;fill:#595959;fill-opacity:1;fill-rule:nonzero;stroke:none"
           id="text202"><tspan
             x="0"
             y="0"
             id="tspan200">4</tspan></text>
      </g>
    </g>
    <g
       id="g204">
      <g
         id="g206"
         clip-path="url(#clipPath210)">
        <text
           xml:space="preserve"
           transform="matrix(1,0,0,-1,716.93,183.82)"
           style="font-variant:normal;font-weight:normal;font-size:17.472px;font-family:Calibri;-inkscape-font-specification:Calibri;writing-mode:lr-tb;fill:#595959;fill-opacity:1;fill-rule:nonzero;stroke:none"
           id="text214"><tspan
             x="0"
             y="0"
             id="tspan212">8</tspan></text>
      </g>
    </g>
    <g
       id="g216">
      <g
         id="g218"
         clip-path="url(#clipPath222)">
        <text
           xml:space="preserve"
           transform="matrix(-4.4e-8,1,1,4.4e-8,85.32,310.06)"
           style="font-variant:normal;font-weight:normal;font-size:17.472px;font-family:Calibri;-inkscape-font-specification:Calibri;writing-mode:lr-tb;fill:#595959;fill-opacity:1;fill-rule:nonzero;stroke:none"
           id="text226"><tspan
             x="0 12.40512 19.201729 26.889408 35.590466 43.959553"
             y="0"
             sodipodi:role="line"
             id="tspan224">%/year</tspan></text>
      </g>
    </g>
    <g
       id="g228">
      <g
         id="g230"
         clip-path="url(#clipPath234)">
        <text
           xml:space="preserve"
           transform="matrix(1,0,0,-1,391.94,158.11)"
           style="font-style:italic;font-variant:normal;font-weight:normal;font-size:17.496px;font-family:Calibri;-inkscape-font-specification:Calibri-Italic;writing-mode:lr-tb;fill:#595959;fill-opacity:1;fill-rule:nonzero;stroke:none"
           id="text238"><tspan
             x="0"
             y="0"
             id="tspan236">e</tspan></text>
      </g>
    </g>
    <path
       d="m 391.89,155.05 h 8.3888 v 1.2234 H 391.89 Z"
       style="fill:#595959;fill-opacity:1;fill-rule:evenodd;stroke:none"
       id="path240" />
    <g
       id="g242">
      <g
         id="g244"
         clip-path="url(#clipPath248)">
        <text
           xml:space="preserve"
           transform="matrix(1,0,0,-1,400.34,158.11)"
           style="font-variant:normal;font-weight:normal;font-size:17.496px;font-family:Calibri;-inkscape-font-specification:Calibri;writing-mode:lr-tb;fill:#595959;fill-opacity:1;fill-rule:nonzero;stroke:none"
           id="text252"><tspan
             x="0"
             y="0"
             id="tspan250">/</tspan></text>
      </g>
    </g>
    <g
       id="g254">
      <g
         id="g256"
         clip-path="url(#clipPath260)">
        <text
           xml:space="preserve"
           transform="matrix(1,0,0,-1,407.16,158.11)"
           style="font-style:italic;font-variant:normal;font-weight:normal;font-size:17.496px;font-family:Calibri;-inkscape-font-specification:Calibri-Italic;writing-mode:lr-tb;fill:#595959;fill-opacity:1;fill-rule:nonzero;stroke:none"
           id="text264"><tspan
             x="0"
             y="0"
             id="tspan262">e</tspan></text>
      </g>
    </g>
    <path
       d="m 407.09,155.05 h 8.3888 v 1.2234 H 407.09 Z"
       style="fill:#595959;fill-opacity:1;fill-rule:evenodd;stroke:none"
       id="path266" />
    <g
       id="g268">
      <g
         id="g270"
         clip-path="url(#clipPath274)">
        <text
           xml:space="preserve"
           transform="matrix(1,0,0,-1,415.54,153.91)"
           style="font-variant:normal;font-weight:normal;font-size:11.712px;font-family:Calibri;-inkscape-font-specification:Calibri;writing-mode:lr-tb;fill:#595959;fill-opacity:1;fill-rule:nonzero;stroke:none"
           id="text278"><tspan
             x="0"
             y="0"
             id="tspan276">0</tspan></text>
      </g>
    </g>
    <g
       id="g280">
      <g
         id="g282"
         clip-path="url(#clipPath286)">
        <text
           xml:space="preserve"
           transform="matrix(1,0,0,-1,175.51,403.06)"
           style="font-style:italic;font-variant:normal;font-weight:normal;font-size:17.472px;font-family:Calibri;-inkscape-font-specification:Calibri-Italic;writing-mode:lr-tb;fill:#000000;fill-opacity:1;fill-rule:nonzero;stroke:none"
           id="text290"><tspan
             x="0"
             y="0"
             id="tspan288">b</tspan></text>
      </g>
    </g>
    <path
       d="m 175.5,399.96 h 8.9131 v 1.2234 H 175.5 Z"
       style="fill:#000000;fill-opacity:1;fill-rule:evenodd;stroke:none"
       id="path292" />
    <g
       id="g294">
      <g
         id="g296"
         clip-path="url(#clipPath300)">
        <text
           xml:space="preserve"
           transform="matrix(1,0,0,-1,188.45,403.06)"
           style="font-variant:normal;font-weight:normal;font-size:17.472px;font-family:Calibri;-inkscape-font-specification:Calibri;writing-mode:lr-tb;fill:#000000;fill-opacity:1;fill-rule:nonzero;stroke:none"
           id="text304"><tspan
             x="0 8.7360001 12.597312"
             y="0"
             sodipodi:role="line"
             id="tspan302">= 1</tspan></text>
      </g>
    </g>
    <g
       id="g306">
      <g
         id="g308"
         clip-path="url(#clipPath312)">
        <text
           xml:space="preserve"
           transform="matrix(1,0,0,-1,143.62,364.66)"
           style="font-style:italic;font-variant:normal;font-weight:normal;font-size:17.496px;font-family:Calibri;-inkscape-font-specification:Calibri-Italic;writing-mode:lr-tb;fill:#000000;fill-opacity:1;fill-rule:nonzero;stroke:none"
           id="text316"><tspan
             x="0"
             y="0"
             id="tspan314">b</tspan></text>
      </g>
    </g>
    <path
       d="m 143.6,361.54 h 8.9131 v 1.2234 H 143.6 Z"
       style="fill:#000000;fill-opacity:1;fill-rule:evenodd;stroke:none"
       id="path318" />
    <g
       id="g320">
      <g
         id="g322"
         clip-path="url(#clipPath326)">
        <text
           xml:space="preserve"
           transform="matrix(1,0,0,-1,156.55,364.66)"
           style="font-variant:normal;font-weight:normal;font-size:17.496px;font-family:Calibri;-inkscape-font-specification:Calibri;writing-mode:lr-tb;fill:#000000;fill-opacity:1;fill-rule:nonzero;stroke:none"
           id="text330"><tspan
             x="0 8.7130079 12.579624 21.450096 28.273537"
             y="0"
             sodipodi:role="line"
             id="tspan328">= 1/2</tspan></text>
      </g>
    </g>
    <g
       id="g332">
      <g
         id="g334"
         clip-path="url(#clipPath338)">
        <text
           xml:space="preserve"
           transform="matrix(1,0,0,-1,210.58,438.67)"
           style="font-style:italic;font-variant:normal;font-weight:normal;font-size:17.472px;font-family:Calibri;-inkscape-font-specification:Calibri-Italic;writing-mode:lr-tb;fill:#000000;fill-opacity:1;fill-rule:nonzero;stroke:none"
           id="text342"><tspan
             x="0"
             y="0"
             id="tspan340">b</tspan></text>
      </g>
    </g>
    <path
       d="m 210.54,435.55 h 8.9131 v 1.2234 H 210.54 Z"
       style="fill:#000000;fill-opacity:1;fill-rule:evenodd;stroke:none"
       id="path344" />
    <g
       id="g346">
      <g
         id="g348"
         clip-path="url(#clipPath352)">
        <text
           xml:space="preserve"
           transform="matrix(1,0,0,-1,223.51,438.67)"
           style="font-variant:normal;font-weight:normal;font-size:17.472px;font-family:Calibri;-inkscape-font-specification:Calibri;writing-mode:lr-tb;fill:#000000;fill-opacity:1;fill-rule:nonzero;stroke:none"
           id="text356"><tspan
             x="0 8.7010555 12.57984"
             y="0"
             sodipodi:role="line"
             id="tspan354">= 2</tspan></text>
      </g>
    </g>
  </g>
</svg>
