<?xml version="1.0" encoding="UTF-8" standalone="no"?>
<!-- Created with Inkscape (http://www.inkscape.org/) -->

<svg
   version="1.1"
   id="svg2"
   width="672"
   height="336"
   viewBox="0 0 672 336"
   sodipodi:docname="ib0_vs_XR_curve.svg"
   inkscape:version="1.2 (dc2aedaf03, 2022-05-15)"
   xmlns:inkscape="http://www.inkscape.org/namespaces/inkscape"
   xmlns:sodipodi="http://sodipodi.sourceforge.net/DTD/sodipodi-0.dtd"
   xmlns="http://www.w3.org/2000/svg"
   xmlns:svg="http://www.w3.org/2000/svg">
  <defs
     id="defs6">
    <clipPath
       clipPathUnits="userSpaceOnUse"
       id="clipPath14">
      <path
         d="M 0,0 H 612 V 792 H 0 Z"
         id="path12" />
    </clipPath>
    <clipPath
       clipPathUnits="userSpaceOnUse"
       id="clipPath22">
      <path
         d="M 50.4,269.76 H 561.6 V 522.24 H 50.4 Z"
         clip-rule="evenodd"
         id="path20" />
    </clipPath>
    <clipPath
       clipPathUnits="userSpaceOnUse"
       id="clipPath36">
      <path
         d="m 81.252,325.37 h 466.09 V 509.04 H 81.252 Z"
         clip-rule="evenodd"
         id="path34" />
    </clipPath>
    <clipPath
       clipPathUnits="userSpaceOnUse"
       id="clipPath46">
      <path
         d="m 81.252,325.37 h 466.09 V 509.04 H 81.252 Z"
         clip-rule="evenodd"
         id="path44" />
    </clipPath>
    <clipPath
       clipPathUnits="userSpaceOnUse"
       id="clipPath56">
      <path
         d="m 81.252,325.37 h 466.09 V 509.04 H 81.252 Z"
         clip-rule="evenodd"
         id="path54" />
    </clipPath>
    <clipPath
       clipPathUnits="userSpaceOnUse"
       id="clipPath66">
      <path
         d="m 81.252,325.37 h 466.09 V 509.04 H 81.252 Z"
         clip-rule="evenodd"
         id="path64" />
    </clipPath>
    <clipPath
       clipPathUnits="userSpaceOnUse"
       id="clipPath76">
      <path
         d="m 81.252,325.37 h 466.09 V 509.04 H 81.252 Z"
         clip-rule="evenodd"
         id="path74" />
    </clipPath>
    <clipPath
       clipPathUnits="userSpaceOnUse"
       id="clipPath86">
      <path
         d="M 50.52,269.76 H 561.6 V 522.24 H 50.52 Z"
         clip-rule="evenodd"
         id="path84" />
    </clipPath>
    <clipPath
       clipPathUnits="userSpaceOnUse"
       id="clipPath98">
      <path
         d="M 50.52,269.76 H 561.6 V 522.24 H 50.52 Z"
         clip-rule="evenodd"
         id="path96" />
    </clipPath>
    <clipPath
       clipPathUnits="userSpaceOnUse"
       id="clipPath110">
      <path
         d="M 50.52,269.76 H 561.6 V 522.24 H 50.52 Z"
         clip-rule="evenodd"
         id="path108" />
    </clipPath>
    <clipPath
       clipPathUnits="userSpaceOnUse"
       id="clipPath122">
      <path
         d="M 50.52,269.76 H 561.6 V 522.24 H 50.52 Z"
         clip-rule="evenodd"
         id="path120" />
    </clipPath>
    <clipPath
       clipPathUnits="userSpaceOnUse"
       id="clipPath134">
      <path
         d="M 50.52,269.76 H 561.6 V 522.24 H 50.52 Z"
         clip-rule="evenodd"
         id="path132" />
    </clipPath>
    <clipPath
       clipPathUnits="userSpaceOnUse"
       id="clipPath146">
      <path
         d="M 50.52,269.76 H 561.6 V 522.24 H 50.52 Z"
         clip-rule="evenodd"
         id="path144" />
    </clipPath>
    <clipPath
       clipPathUnits="userSpaceOnUse"
       id="clipPath158">
      <path
         d="M 50.52,269.76 H 561.6 V 522.24 H 50.52 Z"
         clip-rule="evenodd"
         id="path156" />
    </clipPath>
    <clipPath
       clipPathUnits="userSpaceOnUse"
       id="clipPath170">
      <path
         d="M 50.52,269.76 H 561.6 V 522.24 H 50.52 Z"
         clip-rule="evenodd"
         id="path168" />
    </clipPath>
    <clipPath
       clipPathUnits="userSpaceOnUse"
       id="clipPath182">
      <path
         d="M 50.52,269.76 H 561.6 V 522.24 H 50.52 Z"
         clip-rule="evenodd"
         id="path180" />
    </clipPath>
    <clipPath
       clipPathUnits="userSpaceOnUse"
       id="clipPath194">
      <path
         d="M 50.52,269.76 H 561.6 V 522.24 H 50.52 Z"
         clip-rule="evenodd"
         id="path192" />
    </clipPath>
    <clipPath
       clipPathUnits="userSpaceOnUse"
       id="clipPath206">
      <path
         d="M 50.52,269.76 H 561.6 V 522.24 H 50.52 Z"
         clip-rule="evenodd"
         id="path204" />
    </clipPath>
    <clipPath
       clipPathUnits="userSpaceOnUse"
       id="clipPath218">
      <path
         d="M 50.52,269.76 H 561.6 V 522.24 H 50.52 Z"
         clip-rule="evenodd"
         id="path216" />
    </clipPath>
    <clipPath
       clipPathUnits="userSpaceOnUse"
       id="clipPath230">
      <path
         d="M 50.52,269.76 H 561.6 V 522.24 H 50.52 Z"
         clip-rule="evenodd"
         id="path228" />
    </clipPath>
    <clipPath
       clipPathUnits="userSpaceOnUse"
       id="clipPath242">
      <path
         d="M 50.52,269.76 H 561.6 V 522.24 H 50.52 Z"
         clip-rule="evenodd"
         id="path240" />
    </clipPath>
    <clipPath
       clipPathUnits="userSpaceOnUse"
       id="clipPath254">
      <path
         d="M 50.52,269.76 H 561.6 V 522.24 H 50.52 Z"
         clip-rule="evenodd"
         id="path252" />
    </clipPath>
    <clipPath
       clipPathUnits="userSpaceOnUse"
       id="clipPath268">
      <path
         d="M 50.52,269.76 H 561.6 V 522.24 H 50.52 Z"
         clip-rule="evenodd"
         id="path266" />
    </clipPath>
    <clipPath
       clipPathUnits="userSpaceOnUse"
       id="clipPath280">
      <path
         d="M 50.52,269.76 H 561.6 V 522.24 H 50.52 Z"
         clip-rule="evenodd"
         id="path278" />
    </clipPath>
    <clipPath
       clipPathUnits="userSpaceOnUse"
       id="clipPath294">
      <path
         d="M 50.52,269.76 H 561.6 V 522.24 H 50.52 Z"
         clip-rule="evenodd"
         id="path292" />
    </clipPath>
    <clipPath
       clipPathUnits="userSpaceOnUse"
       id="clipPath306">
      <path
         d="m 50.52,468.96 h 184.92 v 22.8 H 50.52 Z"
         clip-rule="evenodd"
         id="path304" />
    </clipPath>
    <clipPath
       clipPathUnits="userSpaceOnUse"
       id="clipPath320">
      <path
         d="m 50.52,468.96 h 184.92 v 22.8 H 50.52 Z"
         clip-rule="evenodd"
         id="path318" />
    </clipPath>
    <clipPath
       clipPathUnits="userSpaceOnUse"
       id="clipPath332">
      <path
         d="m 50.52,468.96 h 184.92 v 22.8 H 50.52 Z"
         clip-rule="evenodd"
         id="path330" />
    </clipPath>
    <clipPath
       clipPathUnits="userSpaceOnUse"
       id="clipPath344">
      <path
         d="M 50.52,269.76 H 561.6 V 522.24 H 50.52 Z"
         clip-rule="evenodd"
         id="path342" />
    </clipPath>
    <clipPath
       clipPathUnits="userSpaceOnUse"
       id="clipPath358">
      <path
         d="M 50.52,269.76 H 561.6 V 522.24 H 50.52 Z"
         clip-rule="evenodd"
         id="path356" />
    </clipPath>
    <clipPath
       clipPathUnits="userSpaceOnUse"
       id="clipPath370">
      <path
         d="M 50.52,269.76 H 561.6 V 522.24 H 50.52 Z"
         clip-rule="evenodd"
         id="path368" />
    </clipPath>
    <clipPath
       clipPathUnits="userSpaceOnUse"
       id="clipPath382">
      <path
         d="M 50.52,269.76 H 561.6 V 522.24 H 50.52 Z"
         clip-rule="evenodd"
         id="path380" />
    </clipPath>
    <clipPath
       clipPathUnits="userSpaceOnUse"
       id="clipPath396">
      <path
         d="M 50.52,269.76 H 561.6 V 522.24 H 50.52 Z"
         clip-rule="evenodd"
         id="path394" />
    </clipPath>
    <clipPath
       clipPathUnits="userSpaceOnUse"
       id="clipPath408">
      <path
         d="M 50.52,269.76 H 561.6 V 522.24 H 50.52 Z"
         clip-rule="evenodd"
         id="path406" />
    </clipPath>
    <clipPath
       clipPathUnits="userSpaceOnUse"
       id="clipPath420">
      <path
         d="M 50.52,269.76 H 561.6 V 522.24 H 50.52 Z"
         clip-rule="evenodd"
         id="path418" />
    </clipPath>
    <clipPath
       clipPathUnits="userSpaceOnUse"
       id="clipPath434">
      <path
         d="M 50.52,269.76 H 561.6 V 522.24 H 50.52 Z"
         clip-rule="evenodd"
         id="path432" />
    </clipPath>
    <clipPath
       clipPathUnits="userSpaceOnUse"
       id="clipPath446">
      <path
         d="M 50.52,269.76 H 561.6 V 522.24 H 50.52 Z"
         clip-rule="evenodd"
         id="path444" />
    </clipPath>
    <clipPath
       clipPathUnits="userSpaceOnUse"
       id="clipPath458">
      <path
         d="M 50.52,269.76 H 561.6 V 522.24 H 50.52 Z"
         clip-rule="evenodd"
         id="path456" />
    </clipPath>
    <clipPath
       clipPathUnits="userSpaceOnUse"
       id="clipPath472">
      <path
         d="M 50.52,269.76 H 561.6 V 522.24 H 50.52 Z"
         clip-rule="evenodd"
         id="path470" />
    </clipPath>
    <clipPath
       clipPathUnits="userSpaceOnUse"
       id="clipPath484">
      <path
         d="M 50.52,269.76 H 561.6 V 522.24 H 50.52 Z"
         clip-rule="evenodd"
         id="path482" />
    </clipPath>
    <clipPath
       clipPathUnits="userSpaceOnUse"
       id="clipPath498">
      <path
         d="m 237.12,383.04 h 110.64 v 25.92 H 237.12 Z"
         clip-rule="evenodd"
         id="path496" />
    </clipPath>
  </defs>
  <sodipodi:namedview
     id="namedview4"
     pagecolor="#ffffff"
     bordercolor="#000000"
     borderopacity="0.25"
     inkscape:showpageshadow="2"
     inkscape:pageopacity="0.0"
     inkscape:pagecheckerboard="0"
     inkscape:deskcolor="#d1d1d1"
     showgrid="false"
     inkscape:zoom="0.70238095"
     inkscape:cx="334.57627"
     inkscape:cy="168"
     inkscape:window-width="2560"
     inkscape:window-height="1009"
     inkscape:window-x="1912"
     inkscape:window-y="-8"
     inkscape:window-maximized="1"
     inkscape:current-layer="g10">
    <inkscape:page
       x="0"
       y="0"
       id="page8"
       width="672"
       height="336" />
  </sodipodi:namedview>
  <g
     id="g10"
     inkscape:groupmode="layer"
     inkscape:label="Page 1"
     transform="matrix(1.3333333,0,0,-1.3333333,-72,696)"
     clip-path="url(#clipPath14)">
    <g
       id="g16">
      <g
         id="g18"
         clip-path="url(#clipPath22)">
        <path
           d="m 50.506,269.66 h 511.18 V 522.22 H 50.506 Z"
           style="fill:#ffffff;fill-opacity:1;fill-rule:evenodd;stroke:none"
           id="path24" />
      </g>
    </g>
    <path
       d="M 313.97,326.12 V 508.95"
       style="fill:none;stroke:#bfbfbf;stroke-width:0.80784;stroke-linecap:butt;stroke-linejoin:round;stroke-miterlimit:10;stroke-dasharray:none;stroke-opacity:1"
       id="path26" />
    <path
       d="M 81.365,326.12 H 546.57"
       style="fill:none;stroke:#bfbfbf;stroke-width:0.80784;stroke-linecap:butt;stroke-linejoin:round;stroke-miterlimit:10;stroke-dasharray:none;stroke-opacity:1"
       id="path28" />
    <g
       id="g30">
      <g
         id="g32"
         clip-path="url(#clipPath36)">
        <path
           d="m 56.405,445.2 77.585,-13.97 45.37,-8.27 32.05,-5.95 25.08,-4.39 20.29,-3.62 17.32,-3.1 14.86,-2.46 13.19,-2.2 11.76,-1.94 10.73,-1.81 9.69,-1.55 8.92,-1.42 8.4,-1.29 7.63,-1.16 7.24,-1.04 6.85,-1.03 6.33,-0.91 6.07,-0.9 5.69,-0.78 5.56,-0.77 5.17,-0.78 4.91,-0.64 4.78,-0.65 4.53,-0.65 4.39,-0.51 4.27,-0.65 4,-0.52 4.01,-0.51 3.75,-0.52 3.75,-0.39 3.49,-0.52 3.49,-0.38 3.36,-0.39 3.23,-0.39 3.1,-0.39 3.1,-0.39 2.98,-0.38 2.84,-0.39 2.84,-0.26 2.85,-0.39 2.58,-0.26 2.72,-0.25 2.58,-0.39 2.46,-0.26 2.45,-0.26 2.46,-0.26 2.33,-0.26 2.32,-0.25 2.2,-0.26 2.2,-0.26 2.2,-0.26 2.19,-0.26 2.07,-0.13 2.07,-0.26 1.94,-0.25 2.07,-0.13 1.93,-0.26 1.81,-0.13 1.94,-0.26 1.81,-0.13 1.81,-0.26 1.81,-0.13 1.81,-0.26 1.68,-0.13 1.81,-0.12 1.68,-0.26 1.55,-0.13 1.68,-0.13 1.55,-0.13 1.68,-0.26 1.55,-0.13 1.56,-0.13 1.55,-0.13 1.42,-0.13 1.55,-0.13 1.42,-0.12 1.42,-0.13 1.43,-0.13 1.42,-0.26 1.42,-0.13 1.29,-0.13 h 1.42 l 1.3,-0.13 1.29,-0.13 1.42,-0.13 1.29,-0.13 1.17,-0.13 1.29,-0.13 1.29,-0.13 1.16,-0.12 1.3,-0.13 h 1.16 l 1.29,-0.13 1.17,-0.13 1.16,-0.13 1.16,-0.13 h 1.17 l 1.03,-0.13 1.18,-0.12"
           style="fill:none;stroke:#4472c4;stroke-width:1.6157;stroke-linecap:round;stroke-linejoin:round;stroke-miterlimit:10;stroke-dasharray:4.847, 6.4627;stroke-dashoffset:0;stroke-opacity:1"
           id="path38" />
      </g>
    </g>
    <g
       id="g40">
      <g
         id="g42"
         clip-path="url(#clipPath46)">
        <path
           d="m 56.405,481.52 77.585,-19.53 45.37,-14.73 32.05,-11.51 25.08,-9.04 20.29,-7.5 17.32,-6.21 14.86,-5.29 13.19,-4.53 11.76,-3.88 10.73,-3.49 9.69,-2.97 8.92,-2.71 8.4,-2.46 7.63,-2.07 7.24,-2.07 6.85,-1.68 6.33,-1.68 6.07,-1.55 5.69,-1.29 5.56,-1.29 5.17,-1.17 4.91,-1.03 4.78,-1.03 4.53,-1.04 4.39,-0.77 4.27,-0.91 4,-0.77 4.01,-0.78 3.75,-0.65 3.75,-0.64 3.49,-0.65 3.49,-0.51 3.36,-0.65 3.23,-0.52 3.1,-0.39 3.1,-0.51 2.98,-0.52 2.84,-0.39 2.84,-0.39 2.85,-0.38 2.58,-0.39 2.72,-0.39 2.58,-0.39 2.46,-0.25 2.45,-0.39 2.46,-0.26 2.33,-0.39 2.32,-0.26 2.2,-0.26 2.2,-0.25 2.2,-0.26 2.19,-0.26 2.07,-0.26 2.07,-0.26 1.94,-0.13 2.07,-0.26 1.93,-0.25 1.81,-0.13 1.94,-0.26 1.81,-0.13 1.81,-0.26 1.81,-0.13 1.81,-0.13 1.68,-0.26 1.81,-0.13 1.68,-0.13 1.55,-0.25 1.68,-0.13 1.55,-0.13 1.68,-0.13 1.55,-0.13 1.56,-0.13 1.55,-0.13 1.42,-0.13 1.55,-0.13 1.42,-0.13 1.42,-0.13 1.43,-0.13 1.42,-0.13 1.42,-0.12 1.29,-0.13 h 1.42 l 1.3,-0.13 1.29,-0.13 1.42,-0.13 1.29,-0.13 h 1.17 l 1.29,-0.13 1.29,-0.13 h 1.16 l 1.3,-0.13 1.16,-0.13 h 1.29 l 1.17,-0.13 1.16,-0.13 h 1.16 l 1.17,-0.13 1.03,-0.12 1.18,-0.02"
           style="fill:none;stroke:#4472c4;stroke-width:1.6157;stroke-linecap:round;stroke-linejoin:round;stroke-miterlimit:10;stroke-dasharray:none;stroke-opacity:1"
           id="path48" />
      </g>
    </g>
    <g
       id="g50">
      <g
         id="g52"
         clip-path="url(#clipPath56)">
        <path
           d="m 56.405,399.25 h 77.585 45.37 32.05 25.08 20.29 17.32 14.86 13.19 11.76 10.73 9.69 8.92 8.4 7.63 7.24 6.85 6.33 6.07 5.69 5.56 5.17 4.91 4.78 4.53 4.39 4.27 4 4.01 3.75 3.75 3.49 3.49 3.36 3.23 3.1 3.1 2.98 2.84 2.84 2.85 2.58 2.72 2.58 2.46 2.45 2.46 2.33 2.32 2.2 2.2 2.2 2.19 2.07 2.07 1.94 2.07 1.93 1.81 1.94 1.81 1.81 1.81 1.81 1.68 1.81 1.68 1.55 1.68 1.55 1.68 1.55 1.56 1.55 1.42 1.55 1.42 1.42 1.43 1.42 1.42 1.29 1.42 1.3 1.29 1.42 1.29 1.17 1.29 1.29 1.16 1.3 1.16 1.29 1.17 1.16 1.16 1.17 1.03 1.18"
           style="fill:none;stroke:#000000;stroke-width:1.6157;stroke-linecap:round;stroke-linejoin:round;stroke-miterlimit:10;stroke-dasharray:0, 3.2314;stroke-dashoffset:0;stroke-opacity:1"
           id="path58" />
      </g>
    </g>
    <g
       id="g60">
      <g
         id="g62"
         clip-path="url(#clipPath66)">
        <path
           d="m 56.405,366.87 77.585,7.62 45.37,5.3 32.05,4.13 25.08,3.49 20.29,2.98 17.32,2.58 14.86,2.33 13.19,2.06 11.76,1.94 10.73,1.68 9.69,1.68 8.92,1.43 8.4,1.42 7.63,1.42 7.24,1.16 6.85,1.3 6.33,1.03 6.07,1.16 5.69,1.04 5.56,0.9 5.17,0.91 4.91,0.9 4.78,0.91 4.53,0.77 4.39,0.78 4.27,0.77 4,0.78 4.01,0.77 3.75,0.65 3.75,0.65 3.49,0.64 3.49,0.65 3.36,0.65 3.23,0.64 3.1,0.52 3.1,0.52 2.98,0.64 2.84,0.52 2.84,0.52 2.85,0.51 2.58,0.52 2.72,0.39 2.58,0.51 2.46,0.52 2.45,0.39 2.46,0.39 2.33,0.51 2.32,0.39 2.2,0.39 2.2,0.39 2.2,0.39 2.19,0.38 2.07,0.39 2.07,0.39 1.94,0.39 2.07,0.38 1.93,0.39 1.81,0.26 1.94,0.39 1.81,0.39 1.81,0.25 1.81,0.39 1.81,0.26 1.68,0.39 1.81,0.26 1.68,0.26 1.55,0.38 1.68,0.26 1.55,0.26 1.68,0.26 1.55,0.39 1.56,0.25 1.55,0.26 1.42,0.26 1.55,0.26 1.42,0.26 1.42,0.26 1.43,0.26 1.42,0.25 1.42,0.26 1.29,0.26 1.42,0.26 1.3,0.26 1.29,0.13 1.42,0.26 1.29,0.25 1.17,0.26 1.29,0.13 1.29,0.26 1.16,0.26 1.3,0.13 1.16,0.26 1.29,0.26 1.17,0.12 1.16,0.26 1.16,0.13 1.17,0.26 1.03,0.26 1.18,0.14"
           style="fill:none;stroke:#ed7d31;stroke-width:1.6157;stroke-linecap:round;stroke-linejoin:round;stroke-miterlimit:10;stroke-dasharray:4.847, 6.4627;stroke-dashoffset:0;stroke-opacity:1"
           id="path68" />
      </g>
    </g>
    <g
       id="g70">
      <g
         id="g72"
         clip-path="url(#clipPath76)">
        <path
           d="m 56.405,352.24 77.585,7.12 45.37,6.47 32.05,5.94 25.08,5.56 20.29,5.04 17.32,4.65 14.86,4.4 13.19,4.01 11.76,3.87 10.73,3.49 9.69,3.36 8.92,3.11 8.4,2.84 7.63,2.84 7.24,2.59 6.85,2.45 6.33,2.33 6.07,2.2 5.69,2.2 5.56,1.93 5.17,1.94 4.91,1.81 4.78,1.81 4.53,1.55 4.39,1.68 4.27,1.55 4,1.43 4.01,1.42 3.75,1.29 3.75,1.29 3.49,1.3 3.49,1.16 3.36,1.16 3.23,1.04 3.1,1.16 3.1,1.03 2.98,0.91 2.84,1.03 2.84,0.91 2.85,0.9 2.58,0.91 2.72,0.77 2.58,0.78 2.46,0.9 2.45,0.78 2.46,0.64 2.33,0.78 2.32,0.65 2.2,0.77 2.2,0.65 2.2,0.64 2.19,0.65 2.07,0.52 2.07,0.64 1.94,0.52 2.07,0.65 1.93,0.51 1.81,0.52 1.94,0.52 1.81,0.52 1.81,0.51 1.81,0.52 1.81,0.39 1.68,0.51 1.81,0.39 1.68,0.52 1.55,0.39 1.68,0.38 1.55,0.39 1.68,0.52 1.55,0.39 1.56,0.38 1.55,0.26 1.42,0.39 1.55,0.39 1.42,0.39 1.42,0.26 1.43,0.38 1.42,0.39 1.42,0.26 1.29,0.39 1.42,0.26 1.3,0.25 1.29,0.39 1.42,0.26 1.29,0.26 1.17,0.39 1.29,0.26 1.29,0.25 1.16,0.26 1.3,0.26 1.16,0.26 1.29,0.26 1.17,0.26 1.16,0.25 1.16,0.26 1.17,0.26 1.03,0.13 1.18,0.27"
           style="fill:none;stroke:#ed7d31;stroke-width:1.6157;stroke-linecap:round;stroke-linejoin:round;stroke-miterlimit:10;stroke-dasharray:none;stroke-opacity:1"
           id="path78" />
      </g>
    </g>
    <g
       id="g80">
      <g
         id="g82"
         clip-path="url(#clipPath86)">
        <text
           xml:space="preserve"
           transform="matrix(1,0,0,-1,286.25,322.37)"
           style="font-variant:normal;font-weight:normal;font-size:12.912px;font-family:Calibri;-inkscape-font-specification:Calibri;writing-mode:lr-tb;fill:#595959;fill-opacity:1;fill-rule:nonzero;stroke:none"
           id="text90"><tspan
             x="0 6.575984"
             y="0"
             sodipodi:role="line"
             id="tspan88">0%</tspan></text>
      </g>
    </g>
    <g
       id="g92">
      <g
         id="g94"
         clip-path="url(#clipPath98)">
        <text
           xml:space="preserve"
           transform="matrix(1,0,0,-1,286.25,358.94)"
           style="font-variant:normal;font-weight:normal;font-size:12.936px;font-family:Calibri;-inkscape-font-specification:Calibri;writing-mode:lr-tb;fill:#595959;fill-opacity:1;fill-rule:nonzero;stroke:none"
           id="text102"><tspan
             x="0 6.5759521"
             y="0"
             sodipodi:role="line"
             id="tspan100">2%</tspan></text>
      </g>
    </g>
    <g
       id="g104">
      <g
         id="g106"
         clip-path="url(#clipPath110)">
        <text
           xml:space="preserve"
           transform="matrix(1,0,0,-1,286.25,395.52)"
           style="font-variant:normal;font-weight:normal;font-size:12.936px;font-family:Calibri;-inkscape-font-specification:Calibri;writing-mode:lr-tb;fill:#595959;fill-opacity:1;fill-rule:nonzero;stroke:none"
           id="text114"><tspan
             x="0 6.5759521"
             y="0"
             sodipodi:role="line"
             id="tspan112">4%</tspan></text>
      </g>
    </g>
    <g
       id="g116">
      <g
         id="g118"
         clip-path="url(#clipPath122)">
        <text
           xml:space="preserve"
           transform="matrix(1,0,0,-1,286.25,432.1)"
           style="font-variant:normal;font-weight:normal;font-size:12.936px;font-family:Calibri;-inkscape-font-specification:Calibri;writing-mode:lr-tb;fill:#595959;fill-opacity:1;fill-rule:nonzero;stroke:none"
           id="text126"><tspan
             x="0 6.5759521"
             y="0"
             sodipodi:role="line"
             id="tspan124">6%</tspan></text>
      </g>
    </g>
    <g
       id="g128">
      <g
         id="g130"
         clip-path="url(#clipPath134)">
        <text
           xml:space="preserve"
           transform="matrix(1,0,0,-1,286.25,468.67)"
           style="font-variant:normal;font-weight:normal;font-size:12.936px;font-family:Calibri;-inkscape-font-specification:Calibri;writing-mode:lr-tb;fill:#595959;fill-opacity:1;fill-rule:nonzero;stroke:none"
           id="text138"><tspan
             x="0 6.5759521"
             y="0"
             sodipodi:role="line"
             id="tspan136">8%</tspan></text>
      </g>
    </g>
    <g
       id="g140">
      <g
         id="g142"
         clip-path="url(#clipPath146)">
        <text
           xml:space="preserve"
           transform="matrix(1,0,0,-1,279.7,505.22)"
           style="font-variant:normal;font-weight:normal;font-size:12.912px;font-family:Calibri;-inkscape-font-specification:Calibri;writing-mode:lr-tb;fill:#595959;fill-opacity:1;fill-rule:nonzero;stroke:none"
           id="text150"><tspan
             x="0 6.5463839 13.028208"
             y="0"
             sodipodi:role="line"
             id="tspan148">10%</tspan></text>
      </g>
    </g>
    <g
       id="g152">
      <g
         id="g154"
         clip-path="url(#clipPath158)">
        <text
           xml:space="preserve"
           transform="matrix(1,0,0,-1,72.336,305.57)"
           style="font-variant:normal;font-weight:normal;font-size:12.936px;font-family:Calibri;-inkscape-font-specification:Calibri;writing-mode:lr-tb;fill:#595959;fill-opacity:1;fill-rule:nonzero;stroke:none"
           id="text162"><tspan
             x="0 6.5585518 11.474232"
             y="0"
             sodipodi:role="line"
             id="tspan160">1/8</tspan></text>
      </g>
    </g>
    <g
       id="g164">
      <g
         id="g166"
         clip-path="url(#clipPath170)">
        <text
           xml:space="preserve"
           transform="matrix(1,0,0,-1,149.88,305.57)"
           style="font-variant:normal;font-weight:normal;font-size:12.936px;font-family:Calibri;-inkscape-font-specification:Calibri;writing-mode:lr-tb;fill:#595959;fill-opacity:1;fill-rule:nonzero;stroke:none"
           id="text174"><tspan
             x="0 6.584424 11.500104"
             y="0"
             sodipodi:role="line"
             id="tspan172">1/4</tspan></text>
      </g>
    </g>
    <g
       id="g176">
      <g
         id="g178"
         clip-path="url(#clipPath182)">
        <text
           xml:space="preserve"
           transform="matrix(1,0,0,-1,227.42,305.57)"
           style="font-variant:normal;font-weight:normal;font-size:12.936px;font-family:Calibri;-inkscape-font-specification:Calibri;writing-mode:lr-tb;fill:#595959;fill-opacity:1;fill-rule:nonzero;stroke:none"
           id="text186"><tspan
             x="0 6.584424 11.500104"
             y="0"
             sodipodi:role="line"
             id="tspan184">1/2</tspan></text>
      </g>
    </g>
    <g
       id="g188">
      <g
         id="g190"
         clip-path="url(#clipPath194)">
        <text
           xml:space="preserve"
           transform="matrix(1,0,0,-1,310.75,305.57)"
           style="font-variant:normal;font-weight:normal;font-size:12.936px;font-family:Calibri;-inkscape-font-specification:Calibri;writing-mode:lr-tb;fill:#595959;fill-opacity:1;fill-rule:nonzero;stroke:none"
           id="text198"><tspan
             x="0"
             y="0"
             id="tspan196">1</tspan></text>
      </g>
    </g>
    <g
       id="g200">
      <g
         id="g202"
         clip-path="url(#clipPath206)">
        <text
           xml:space="preserve"
           transform="matrix(1,0,0,-1,388.3,305.57)"
           style="font-variant:normal;font-weight:normal;font-size:12.936px;font-family:Calibri;-inkscape-font-specification:Calibri;writing-mode:lr-tb;fill:#595959;fill-opacity:1;fill-rule:nonzero;stroke:none"
           id="text210"><tspan
             x="0"
             y="0"
             id="tspan208">2</tspan></text>
      </g>
    </g>
    <g
       id="g212">
      <g
         id="g214"
         clip-path="url(#clipPath218)">
        <text
           xml:space="preserve"
           transform="matrix(1,0,0,-1,465.86,305.57)"
           style="font-variant:normal;font-weight:normal;font-size:12.936px;font-family:Calibri;-inkscape-font-specification:Calibri;writing-mode:lr-tb;fill:#595959;fill-opacity:1;fill-rule:nonzero;stroke:none"
           id="text222"><tspan
             x="0"
             y="0"
             id="tspan220">4</tspan></text>
      </g>
    </g>
    <g
       id="g224">
      <g
         id="g226"
         clip-path="url(#clipPath230)">
        <text
           xml:space="preserve"
           transform="matrix(1,0,0,-1,543.41,305.57)"
           style="font-variant:normal;font-weight:normal;font-size:12.936px;font-family:Calibri;-inkscape-font-specification:Calibri;writing-mode:lr-tb;fill:#595959;fill-opacity:1;fill-rule:nonzero;stroke:none"
           id="text234"><tspan
             x="0"
             y="0"
             id="tspan232">8</tspan></text>
      </g>
    </g>
    <g
       id="g236">
      <g
         id="g238"
         clip-path="url(#clipPath242)">
        <text
           xml:space="preserve"
           transform="matrix(-4.4e-8,1,1,4.4e-8,76.248,398.93)"
           style="font-variant:normal;font-weight:normal;font-size:12.936px;font-family:Calibri;-inkscape-font-specification:Calibri;writing-mode:lr-tb;fill:#595959;fill-opacity:1;fill-rule:nonzero;stroke:none"
           id="text246"><tspan
             x="0 9.1716242 14.203728 19.895569 26.337696 32.534039"
             y="0"
             sodipodi:role="line"
             id="tspan244">%/year</tspan></text>
      </g>
    </g>
    <g
       id="g248">
      <g
         id="g250"
         clip-path="url(#clipPath254)">
        <text
           xml:space="preserve"
           transform="matrix(1,0,0,-1,303.05,286.56)"
           style="font-style:italic;font-variant:normal;font-weight:normal;font-size:12.936px;font-family:Calibri;-inkscape-font-specification:Calibri-Italic;writing-mode:lr-tb;fill:#595959;fill-opacity:1;fill-rule:nonzero;stroke:none"
           id="text258"><tspan
             x="0"
             y="0"
             id="tspan256">e</tspan></text>
      </g>
    </g>
    <path
       d="m 302.98,284.3 h 6.2042 v 0.90479 H 302.98 Z"
       style="fill:#595959;fill-opacity:1;fill-rule:evenodd;stroke:none"
       id="path260" />
    <g
       id="g262">
      <g
         id="g264"
         clip-path="url(#clipPath268)">
        <text
           xml:space="preserve"
           transform="matrix(1,0,0,-1,309.24,286.56)"
           style="font-variant:normal;font-weight:normal;font-size:12.936px;font-family:Calibri;-inkscape-font-specification:Calibri;writing-mode:lr-tb;fill:#595959;fill-opacity:1;fill-rule:nonzero;stroke:none"
           id="text272"><tspan
             x="0"
             y="0"
             id="tspan270">/</tspan></text>
      </g>
    </g>
    <g
       id="g274">
      <g
         id="g276"
         clip-path="url(#clipPath280)">
        <text
           xml:space="preserve"
           transform="matrix(1,0,0,-1,314.28,286.56)"
           style="font-style:italic;font-variant:normal;font-weight:normal;font-size:12.936px;font-family:Calibri;-inkscape-font-specification:Calibri-Italic;writing-mode:lr-tb;fill:#595959;fill-opacity:1;fill-rule:nonzero;stroke:none"
           id="text284"><tspan
             x="0"
             y="0"
             id="tspan282">e</tspan></text>
      </g>
    </g>
    <path
       d="m 314.23,284.3 h 6.2042 v 0.90479 H 314.23 Z"
       style="fill:#595959;fill-opacity:1;fill-rule:evenodd;stroke:none"
       id="path286" />
    <g
       id="g288">
      <g
         id="g290"
         clip-path="url(#clipPath294)">
        <text
           xml:space="preserve"
           transform="matrix(1,0,0,-1,320.5,283.44)"
           style="font-variant:normal;font-weight:normal;font-size:8.664px;font-family:Calibri;-inkscape-font-specification:Calibri;writing-mode:lr-tb;fill:#595959;fill-opacity:1;fill-rule:nonzero;stroke:none"
           id="text298"><tspan
             x="0"
             y="0"
             id="tspan296">0</tspan></text>
      </g>
    </g>
    <g
       id="g300">
      <g
         id="g302"
         clip-path="url(#clipPath306)">
        <text
           xml:space="preserve"
           transform="matrix(1,0,0,-1,106.49,475.54)"
           style="font-style:italic;font-variant:normal;font-weight:normal;font-size:12.936px;font-family:Calibri;-inkscape-font-specification:Calibri-Italic;writing-mode:lr-tb;fill:#000000;fill-opacity:1;fill-rule:nonzero;stroke:none"
           id="text310"><tspan
             x="0"
             y="0"
             id="tspan308">b</tspan></text>
      </g>
    </g>
    <path
       d="m 106.47,473.25 h 6.592 v 0.90479 h -6.592 z"
       style="fill:#000000;fill-opacity:1;fill-rule:evenodd;stroke:none"
       id="path312" />
    <g
       id="g314">
      <g
         id="g316"
         clip-path="url(#clipPath320)">
        <text
           xml:space="preserve"
           transform="matrix(1,0,0,-1,113.09,472.42)"
           style="font-variant:normal;font-weight:normal;font-size:8.64px;font-family:Calibri;-inkscape-font-specification:Calibri;writing-mode:lr-tb;fill:#000000;fill-opacity:1;fill-rule:nonzero;stroke:none"
           id="text324"><tspan
             x="0 3.744"
             y="0"
             sodipodi:role="line"
             id="tspan322">xr</tspan></text>
      </g>
    </g>
    <g
       id="g326">
      <g
         id="g328"
         clip-path="url(#clipPath332)">
        <text
           xml:space="preserve"
           transform="matrix(1,0,0,-1,122.78,475.54)"
           style="font-variant:normal;font-weight:normal;font-size:12.936px;font-family:Calibri;-inkscape-font-specification:Calibri;writing-mode:lr-tb;fill:#000000;fill-opacity:1;fill-rule:nonzero;stroke:none"
           id="text336"><tspan
             x="0 6.4421282 9.3915358"
             y="0"
             sodipodi:role="line"
             id="tspan334">= 1</tspan></text>
      </g>
    </g>
    <g
       id="g338">
      <g
         id="g340"
         clip-path="url(#clipPath344)">
        <text
           xml:space="preserve"
           transform="matrix(1,0,0,-1,106.34,441.65)"
           style="font-style:italic;font-variant:normal;font-weight:normal;font-size:11.904px;font-family:Calibri;-inkscape-font-specification:Calibri-Italic;writing-mode:lr-tb;fill:#000000;fill-opacity:1;fill-rule:nonzero;stroke:none"
           id="text348"><tspan
             x="0"
             y="0"
             id="tspan346">b</tspan></text>
      </g>
    </g>
    <path
       d="m 106.32,439.62 h 6.0749 v 0.77551 H 106.32 Z"
       style="fill:#000000;fill-opacity:1;fill-rule:evenodd;stroke:none"
       id="path350" />
    <g
       id="g352">
      <g
         id="g354"
         clip-path="url(#clipPath358)">
        <text
           xml:space="preserve"
           transform="matrix(1,0,0,-1,112.42,438.79)"
           style="font-variant:normal;font-weight:normal;font-size:7.872px;font-family:Calibri;-inkscape-font-specification:Calibri;writing-mode:lr-tb;fill:#000000;fill-opacity:1;fill-rule:nonzero;stroke:none"
           id="text362"><tspan
             x="0 3.3599761"
             y="0"
             sodipodi:role="line"
             id="tspan360">xr</tspan></text>
      </g>
    </g>
    <g
       id="g364">
      <g
         id="g366"
         clip-path="url(#clipPath370)">
        <text
           xml:space="preserve"
           transform="matrix(1,0,0,-1,121.46,441.65)"
           style="font-variant:normal;font-weight:normal;font-size:12.936px;font-family:Calibri;-inkscape-font-specification:Calibri;writing-mode:lr-tb;fill:#000000;fill-opacity:1;fill-rule:nonzero;stroke:none"
           id="text374"><tspan
             x="0 6.4421282 9.417408 16.001831 21.033936"
             y="0"
             sodipodi:role="line"
             id="tspan372">= 1/2</tspan></text>
      </g>
    </g>
    <g
       id="g376">
      <g
         id="g378"
         clip-path="url(#clipPath382)">
        <text
           xml:space="preserve"
           transform="matrix(1,0,0,-1,106.34,404.11)"
           style="font-style:italic;font-variant:normal;font-weight:normal;font-size:11.904px;font-family:Calibri;-inkscape-font-specification:Calibri-Italic;writing-mode:lr-tb;fill:#000000;fill-opacity:1;fill-rule:nonzero;stroke:none"
           id="text386"><tspan
             x="0"
             y="0"
             id="tspan384">b</tspan></text>
      </g>
    </g>
    <path
       d="m 106.32,402.09 h 6.0749 v 0.77551 H 106.32 Z"
       style="fill:#000000;fill-opacity:1;fill-rule:evenodd;stroke:none"
       id="path388" />
    <g
       id="g390">
      <g
         id="g392"
         clip-path="url(#clipPath396)">
        <text
           xml:space="preserve"
           transform="matrix(1,0,0,-1,112.42,401.26)"
           style="font-variant:normal;font-weight:normal;font-size:7.896px;font-family:Calibri;-inkscape-font-specification:Calibri;writing-mode:lr-tb;fill:#000000;fill-opacity:1;fill-rule:nonzero;stroke:none"
           id="text400"><tspan
             x="0 3.3599679"
             y="0"
             sodipodi:role="line"
             id="tspan398">xr</tspan></text>
      </g>
    </g>
    <g
       id="g402">
      <g
         id="g404"
         clip-path="url(#clipPath408)">
        <text
           xml:space="preserve"
           transform="matrix(1,0,0,-1,121.46,404.11)"
           style="font-variant:normal;font-weight:normal;font-size:12.936px;font-family:Calibri;-inkscape-font-specification:Calibri;writing-mode:lr-tb;fill:#000000;fill-opacity:1;fill-rule:nonzero;stroke:none"
           id="text412"><tspan
             x="0 6.4421282 9.417408"
             y="0"
             sodipodi:role="line"
             id="tspan410">= 0</tspan></text>
      </g>
    </g>
    <g
       id="g414">
      <g
         id="g416"
         clip-path="url(#clipPath420)">
        <text
           xml:space="preserve"
           transform="matrix(1,0,0,-1,106.34,376.73)"
           style="font-style:italic;font-variant:normal;font-weight:normal;font-size:11.904px;font-family:Calibri;-inkscape-font-specification:Calibri-Italic;writing-mode:lr-tb;fill:#000000;fill-opacity:1;fill-rule:nonzero;stroke:none"
           id="text424"><tspan
             x="0"
             y="0"
             id="tspan422">b</tspan></text>
      </g>
    </g>
    <path
       d="m 106.33,374.72 h 6.0749 v 0.77551 H 106.33 Z"
       style="fill:#000000;fill-opacity:1;fill-rule:evenodd;stroke:none"
       id="path426" />
    <g
       id="g428">
      <g
         id="g430"
         clip-path="url(#clipPath434)">
        <text
           xml:space="preserve"
           transform="matrix(1,0,0,-1,112.42,373.87)"
           style="font-variant:normal;font-weight:normal;font-size:7.872px;font-family:Calibri;-inkscape-font-specification:Calibri;writing-mode:lr-tb;fill:#000000;fill-opacity:1;fill-rule:nonzero;stroke:none"
           id="text438"><tspan
             x="0 3.3599761"
             y="0"
             sodipodi:role="line"
             id="tspan436">xr</tspan></text>
      </g>
    </g>
    <g
       id="g440">
      <g
         id="g442"
         clip-path="url(#clipPath446)">
        <text
           xml:space="preserve"
           transform="matrix(1,0,0,-1,121.46,376.73)"
           style="font-variant:normal;font-weight:normal;font-size:12.936px;font-family:Calibri;-inkscape-font-specification:Calibri;writing-mode:lr-tb;fill:#000000;fill-opacity:1;fill-rule:nonzero;stroke:none"
           id="text450"><tspan
             x="0 6.4421282 9.417408 15.859536 22.456896 27.489"
             y="0"
             sodipodi:role="line"
             id="tspan448">= −1/2</tspan></text>
      </g>
    </g>
    <g
       id="g452">
      <g
         id="g454"
         clip-path="url(#clipPath458)">
        <text
           xml:space="preserve"
           transform="matrix(1,0,0,-1,106.34,343.1)"
           style="font-style:italic;font-variant:normal;font-weight:normal;font-size:11.904px;font-family:Calibri;-inkscape-font-specification:Calibri-Italic;writing-mode:lr-tb;fill:#000000;fill-opacity:1;fill-rule:nonzero;stroke:none"
           id="text462"><tspan
             x="0"
             y="0"
             id="tspan460">b</tspan></text>
      </g>
    </g>
    <path
       d="m 106.32,341.1 h 6.0749 v 0.77551 H 106.32 Z"
       style="fill:#000000;fill-opacity:1;fill-rule:evenodd;stroke:none"
       id="path464" />
    <g
       id="g466">
      <g
         id="g468"
         clip-path="url(#clipPath472)">
        <text
           xml:space="preserve"
           transform="matrix(1,0,0,-1,112.42,340.25)"
           style="font-variant:normal;font-weight:normal;font-size:7.872px;font-family:Calibri;-inkscape-font-specification:Calibri;writing-mode:lr-tb;fill:#000000;fill-opacity:1;fill-rule:nonzero;stroke:none"
           id="text476"><tspan
             x="0 3.3599761"
             y="0"
             sodipodi:role="line"
             id="tspan474">xr</tspan></text>
      </g>
    </g>
    <g
       id="g478">
      <g
         id="g480"
         clip-path="url(#clipPath484)">
        <text
           xml:space="preserve"
           transform="matrix(1,0,0,-1,121.46,343.1)"
           style="font-variant:normal;font-weight:normal;font-size:12.936px;font-family:Calibri;-inkscape-font-specification:Calibri;writing-mode:lr-tb;fill:#000000;fill-opacity:1;fill-rule:nonzero;stroke:none"
           id="text488"><tspan
             x="0 6.4421282 9.417408 15.859536"
             y="0"
             sodipodi:role="line"
             id="tspan486">= −1</tspan></text>
      </g>
    </g>
    <path
       d="m 281.99,379.65 h 25.19 v 37.533 h -25.19 z"
       style="fill:#ffffff;fill-opacity:1;fill-rule:evenodd;stroke:none"
       id="path490" />
    <g
       id="g492">
      <g
         id="g494"
         clip-path="url(#clipPath498)">
        <text
           xml:space="preserve"
           transform="matrix(1,0,0,-1,284.59,392.64)"
           style="font-variant:normal;font-weight:normal;font-size:12.936px;font-family:Calibri;-inkscape-font-specification:Calibri;writing-mode:lr-tb;fill:#000000;fill-opacity:1;fill-rule:nonzero;stroke:none"
           id="text502"><tspan
             x="0 6.5999522"
             y="0"
             sodipodi:role="line"
             id="tspan500">4%</tspan></text>
      </g>
    </g>
  </g>
</svg>
